<?xml version="1.0" encoding="UTF-8"?><svg id="Layer_2" xmlns="http://www.w3.org/2000/svg" viewBox="0 0 600 600"><g id="Components"><g id="df83f05c-2781-4948-9b6e-78af4873f0ae_4"><path d="M0,4.509v90.982c0,2.4903,2.0187,4.509,4.509,4.509h390.982c2.4903,0,4.509,2.0187,4.509,4.509v95.491h95.491c2.4903,0,4.509,2.0187,4.509,4.509v390.982c0,2.4903,2.0187,4.509,4.509,4.509h90.982c2.4903,0,4.509-2.0187,4.509-4.509V4.509c0-2.4903-2.0187-4.509-4.509-4.509H4.509C2.0187,0,0,2.0187,0,4.509Z"/><path d="M100,204.509v90.9821c0,2.4902,2.0187,4.509,4.509,4.509h90.9821c2.4902,0,4.509,2.0187,4.509,4.509v95.491h95.491c2.4902,0,4.509,2.0187,4.509,4.509v90.9821c0,2.4902,2.0187,4.509,4.509,4.509h90.9821c2.4902,0,4.509-2.0187,4.509-4.509V200H104.509c-2.4902,0-4.509,2.0187-4.509,4.509Z"/><path d="M104.509,500h90.9821c2.4902,0,4.509-2.0187,4.509-4.509v-95.491h-95.491c-2.4902,0-4.509,2.0187-4.509,4.509v90.9821c0,2.4902,2.0187,4.509,4.509,4.509Z"/></g></g></svg>